<svg width="44" height="44" viewBox="0 0 44 44" fill="none" xmlns="http://www.w3.org/2000/svg">
<path d="M38.8256 16.1475L35.5845 12.9064C35.323 12.6485 34.9744 12.4978 34.6073 12.4842C34.2402 12.4706 33.8814 12.5951 33.6015 12.833C33.1695 13.2008 32.615 13.3928 32.048 13.371C31.4811 13.3492 30.943 13.1153 30.5404 12.7155C30.1408 12.3129 29.907 11.775 29.8852 11.2082C29.8634 10.6414 30.0553 10.0871 30.4229 9.65506C30.6608 9.3752 30.7852 9.01636 30.7716 8.64929C30.758 8.28222 30.6074 7.93356 30.3494 7.67207L27.1054 4.4273C26.8312 4.15368 26.4597 4 26.0724 4C25.6851 4 25.3136 4.15368 25.0394 4.4273L19.8726 9.59337C19.5536 9.91351 19.3131 10.3031 19.1698 10.7318C19.1418 10.8142 19.0953 10.889 19.0338 10.9505C18.9723 11.0121 18.8974 11.0586 18.815 11.0865C18.3862 11.2298 17.9965 11.4706 17.6766 11.7901L4.4273 25.0394C4.15368 25.3136 4 25.6851 4 26.0724C4 26.4598 4.15368 26.8313 4.4273 27.1054L7.67206 30.3465C7.93356 30.6045 8.28221 30.7551 8.64928 30.7687C9.01636 30.7823 9.3752 30.6579 9.65506 30.4199C10.0861 30.0492 10.6413 29.8551 11.2094 29.8764C11.7776 29.8977 12.3167 30.133 12.7187 30.535C13.1207 30.937 13.3559 31.4761 13.3773 32.0442C13.3986 32.6124 13.2045 33.1676 12.8337 33.5986C12.5958 33.8785 12.4714 34.2373 12.485 34.6044C12.4986 34.9715 12.6492 35.3201 12.9072 35.5816L16.1483 38.8227C16.4224 39.0963 16.7939 39.25 17.1813 39.25C17.5686 39.25 17.9401 39.0963 18.2142 38.8227L31.4636 25.5734C31.7828 25.2536 32.0237 24.8642 32.1672 24.4357C32.195 24.353 32.2415 24.2779 32.3032 24.2162C32.3648 24.1546 32.44 24.108 32.5226 24.0802C32.951 23.9369 33.3404 23.6963 33.6603 23.3774L38.8264 18.2106C39.099 17.9365 39.252 17.5655 39.2518 17.1789C39.2517 16.7923 39.0984 16.4215 38.8256 16.1475ZM22.0532 13.9699C21.944 14.0791 21.8145 14.1656 21.6719 14.2247C21.5293 14.2838 21.3765 14.3142 21.2222 14.3142C21.0678 14.3142 20.915 14.2838 20.7724 14.2247C20.6298 14.1656 20.5003 14.0791 20.3911 13.9699L19.5458 13.1246C19.3308 12.9031 19.2116 12.6059 19.2139 12.2972C19.2162 11.9885 19.3399 11.6932 19.5582 11.4749C19.7765 11.2567 20.0719 11.1332 20.3806 11.131C20.6893 11.1288 20.9864 11.2481 21.2078 11.4633L22.0532 12.3079C22.1623 12.417 22.2489 12.5465 22.308 12.6891C22.367 12.8317 22.3974 12.9845 22.3974 13.1389C22.3974 13.2932 22.367 13.4461 22.308 13.5886C22.2489 13.7312 22.1623 13.8608 22.0532 13.9699ZM25.2847 17.2015C25.0644 17.4217 24.7656 17.5454 24.4541 17.5454C24.1425 17.5454 23.8438 17.4217 23.6234 17.2015L22.8155 16.3936C22.7064 16.2844 22.6198 16.1549 22.5608 16.0123C22.5017 15.8697 22.4713 15.7169 22.4713 15.5625C22.4713 15.4082 22.5017 15.2554 22.5608 15.1128C22.6198 14.9702 22.7064 14.8407 22.8155 14.7315C23.0359 14.5111 23.3349 14.3873 23.6465 14.3873C23.8009 14.3873 23.9537 14.4177 24.0963 14.4768C24.2389 14.5358 24.3684 14.6224 24.4776 14.7315L25.2855 15.5394C25.395 15.6485 25.4819 15.7782 25.5412 15.9209C25.6006 16.0637 25.6311 16.2168 25.6312 16.3714C25.6313 16.526 25.6008 16.6791 25.5416 16.8219C25.4824 16.9647 25.3956 17.0944 25.2862 17.2037L25.2847 17.2015ZM28.5163 20.433C28.4071 20.5421 28.2776 20.6287 28.135 20.6878C27.9924 20.7469 27.8396 20.7773 27.6852 20.7773C27.5309 20.7773 27.3781 20.7469 27.2355 20.6878C27.0929 20.6287 26.9633 20.5421 26.8542 20.433L26.0463 19.6251C25.8313 19.4036 25.7121 19.1064 25.7144 18.7978C25.7167 18.4891 25.8404 18.1937 26.0588 17.9755C26.2771 17.7573 26.5725 17.6337 26.8812 17.6315C27.1898 17.6293 27.487 17.7487 27.7084 17.9638L28.5163 18.7717C28.6261 18.8806 28.7133 19.0102 28.773 19.1529C28.8326 19.2956 28.8635 19.4487 28.8638 19.6034C28.8642 19.7581 28.834 19.9113 28.775 20.0543C28.7159 20.1973 28.6293 20.3273 28.5199 20.4367L28.5163 20.433ZM31.7794 23.7042C31.6703 23.8134 31.5407 23.8999 31.3981 23.959C31.2555 24.0181 31.1027 24.0485 30.9484 24.0485C30.794 24.0485 30.6412 24.0181 30.4986 23.959C30.356 23.8999 30.2265 23.8134 30.1173 23.7042L29.2771 22.8596C29.1657 22.7508 29.077 22.6209 29.0162 22.4776C28.9554 22.3342 28.9237 22.1801 28.923 22.0244C28.9222 21.8686 28.9524 21.7143 29.0119 21.5704C29.0713 21.4264 29.1588 21.2957 29.2691 21.1858C29.3795 21.076 29.5107 20.9892 29.6549 20.9304C29.7992 20.8717 29.9536 20.8422 30.1094 20.8437C30.2651 20.8452 30.419 20.8777 30.5621 20.9392C30.7052 21.0007 30.8346 21.09 30.9429 21.202L31.7838 22.0458C31.8929 22.155 31.9794 22.2846 32.0384 22.4272C32.0974 22.5698 32.1278 22.7227 32.1277 22.877C32.1276 23.0313 32.0972 23.1842 32.038 23.3267C31.9789 23.4693 31.8923 23.5988 31.7831 23.7079L31.7794 23.7042Z" fill="#2B293D"/>
</svg>
