<svg width="40" height="40" viewBox="0 0 40 40" fill="none" xmlns="http://www.w3.org/2000/svg">
<mask id="path-1-inside-1_85_17479" fill="white">
<path d="M38.2952 14.1717L34.8475 10.7241C34.5693 10.4497 34.1985 10.2894 33.808 10.275C33.4175 10.2605 33.0358 10.3929 32.7381 10.6459C32.2785 11.0371 31.6887 11.2414 31.0856 11.2182C30.4825 11.1951 29.9101 10.9462 29.4819 10.5209C29.0568 10.0927 28.8081 9.52048 28.7849 8.91756C28.7618 8.31464 28.9659 7.72502 29.3569 7.26547C29.61 6.96777 29.7423 6.58606 29.7279 6.19559C29.7134 5.80513 29.5532 5.43425 29.2787 5.15609L25.828 1.70453C25.5363 1.41347 25.1412 1.25 24.7291 1.25C24.3171 1.25 23.9219 1.41347 23.6303 1.70453L18.1342 7.19984C17.7949 7.54038 17.539 7.95485 17.3866 8.41078C17.3569 8.49844 17.3074 8.57808 17.242 8.64352C17.1765 8.70896 17.0969 8.75844 17.0092 8.78812C16.5531 8.94055 16.1386 9.19675 15.7983 9.53656L1.70453 23.6303C1.41347 23.9219 1.25 24.3171 1.25 24.7291C1.25 25.1412 1.41347 25.5363 1.70453 25.828L5.1561 29.2756C5.43425 29.55 5.80513 29.7103 6.1956 29.7247C6.58606 29.7392 6.96777 29.6068 7.26547 29.3537C7.72397 28.9594 8.31457 28.7528 8.91892 28.7755C9.52327 28.7982 10.0967 29.0485 10.5244 29.4761C10.952 29.9037 11.2022 30.4772 11.2249 31.0815C11.2476 31.6859 11.0411 32.2765 10.6467 32.735C10.3936 33.0327 10.2613 33.4144 10.2757 33.8049C10.2902 34.1953 10.4504 34.5662 10.7248 34.8444L14.1725 38.292C14.4641 38.5831 14.8593 38.7466 15.2713 38.7466C15.6833 38.7466 16.0785 38.5831 16.3702 38.292L30.4639 24.1983C30.8035 23.8581 31.0597 23.4439 31.2123 22.9881C31.2419 22.9002 31.2914 22.8203 31.357 22.7547C31.4226 22.6891 31.5025 22.6395 31.5905 22.61C32.0462 22.4575 32.4604 22.2016 32.8006 21.8623L38.2959 16.3662C38.5859 16.0747 38.7487 15.6801 38.7485 15.2688C38.7484 14.8576 38.5854 14.4631 38.2952 14.1717ZM20.4537 11.8553C20.3377 11.9714 20.1999 12.0635 20.0482 12.1263C19.8965 12.1892 19.7339 12.2215 19.5698 12.2215C19.4056 12.2215 19.243 12.1892 19.0913 12.1263C18.9397 12.0635 18.8019 11.9714 18.6858 11.8553L17.7866 10.9561C17.5578 10.7205 17.431 10.4044 17.4335 10.076C17.436 9.74766 17.5675 9.43347 17.7998 9.20134C18.032 8.96921 18.3463 8.83778 18.6746 8.83545C19.003 8.83312 19.319 8.96009 19.5545 9.18891L20.4537 10.0873C20.5699 10.2034 20.662 10.3412 20.7248 10.4929C20.7876 10.6446 20.82 10.8071 20.82 10.9713C20.82 11.1355 20.7876 11.2981 20.7248 11.4497C20.662 11.6014 20.5699 11.7392 20.4537 11.8553ZM23.8912 15.2928C23.6569 15.5271 23.339 15.6586 23.0077 15.6586C22.6763 15.6586 22.3585 15.5271 22.1241 15.2928L21.2647 14.4334C21.1486 14.3173 21.0565 14.1795 20.9937 14.0279C20.9309 13.8762 20.8985 13.7136 20.8985 13.5495C20.8985 13.3853 20.9309 13.2227 20.9937 13.071C21.0565 12.9194 21.1486 12.7816 21.2647 12.6655C21.4991 12.431 21.8171 12.2993 22.1487 12.2993C22.3128 12.2993 22.4754 12.3316 22.6271 12.3945C22.7788 12.4573 22.9166 12.5494 23.0327 12.6655L23.892 13.5248C24.0085 13.6409 24.101 13.7788 24.1641 13.9307C24.2272 14.0826 24.2597 14.2454 24.2598 14.4098C24.2599 14.5743 24.2275 14.7371 24.1645 14.8891C24.1016 15.041 24.0092 15.179 23.8928 15.2952L23.8912 15.2928ZM27.3287 18.7303C27.2127 18.8464 27.0749 18.9385 26.9232 19.0013C26.7715 19.0642 26.6089 19.0965 26.4448 19.0965C26.2806 19.0965 26.118 19.0642 25.9663 19.0013C25.8147 18.9385 25.6769 18.8464 25.5608 18.7303L24.7014 17.8709C24.4727 17.6353 24.3459 17.3192 24.3483 16.9909C24.3508 16.6625 24.4824 16.3483 24.7146 16.1162C24.9468 15.8841 25.2611 15.7526 25.5894 15.7503C25.9178 15.748 26.2339 15.8749 26.4694 16.1037L27.3287 16.9631C27.4456 17.079 27.5384 17.2168 27.6018 17.3686C27.6653 17.5205 27.6981 17.6833 27.6985 17.8479C27.6988 18.0124 27.6667 18.1754 27.6039 18.3275C27.5412 18.4796 27.449 18.6178 27.3327 18.7342L27.3287 18.7303ZM30.7998 22.21C30.6838 22.3261 30.546 22.4182 30.3943 22.481C30.2426 22.5439 30.08 22.5762 29.9159 22.5762C29.7517 22.5762 29.5891 22.5439 29.4374 22.481C29.2858 22.4182 29.1479 22.3261 29.0319 22.21L28.1381 21.3116C28.0196 21.1958 27.9252 21.0577 27.8606 20.9052C27.7959 20.7526 27.7622 20.5888 27.7614 20.4231C27.7606 20.2575 27.7927 20.0933 27.8559 19.9401C27.9192 19.787 28.0122 19.648 28.1296 19.5311C28.247 19.4143 28.3865 19.3219 28.54 19.2594C28.6934 19.197 28.8577 19.1656 29.0234 19.1672C29.1891 19.1688 29.3528 19.2033 29.505 19.2687C29.6572 19.3342 29.7948 19.4292 29.91 19.5483L30.8045 20.4459C30.9206 20.5621 31.0126 20.6999 31.0754 20.8516C31.1382 21.0033 31.1704 21.1659 31.1704 21.3301C31.1703 21.4943 31.1379 21.6568 31.075 21.8085C31.0121 21.9601 30.9199 22.0979 30.8037 22.2139L30.7998 22.21Z"/>
</mask>
<path d="M38.2952 14.1717L34.8475 10.7241C34.5693 10.4497 34.1985 10.2894 33.808 10.275C33.4175 10.2605 33.0358 10.3929 32.7381 10.6459C32.2785 11.0371 31.6887 11.2414 31.0856 11.2182C30.4825 11.1951 29.9101 10.9462 29.4819 10.5209C29.0568 10.0927 28.8081 9.52048 28.7849 8.91756C28.7618 8.31464 28.9659 7.72502 29.3569 7.26547C29.61 6.96777 29.7423 6.58606 29.7279 6.19559C29.7134 5.80513 29.5532 5.43425 29.2787 5.15609L25.828 1.70453C25.5363 1.41347 25.1412 1.25 24.7291 1.25C24.3171 1.25 23.9219 1.41347 23.6303 1.70453L18.1342 7.19984C17.7949 7.54038 17.539 7.95485 17.3866 8.41078C17.3569 8.49844 17.3074 8.57808 17.242 8.64352C17.1765 8.70896 17.0969 8.75844 17.0092 8.78812C16.5531 8.94055 16.1386 9.19675 15.7983 9.53656L1.70453 23.6303C1.41347 23.9219 1.25 24.3171 1.25 24.7291C1.25 25.1412 1.41347 25.5363 1.70453 25.828L5.1561 29.2756C5.43425 29.55 5.80513 29.7103 6.1956 29.7247C6.58606 29.7392 6.96777 29.6068 7.26547 29.3537C7.72397 28.9594 8.31457 28.7528 8.91892 28.7755C9.52327 28.7982 10.0967 29.0485 10.5244 29.4761C10.952 29.9037 11.2022 30.4772 11.2249 31.0815C11.2476 31.6859 11.0411 32.2765 10.6467 32.735C10.3936 33.0327 10.2613 33.4144 10.2757 33.8049C10.2902 34.1953 10.4504 34.5662 10.7248 34.8444L14.1725 38.292C14.4641 38.5831 14.8593 38.7466 15.2713 38.7466C15.6833 38.7466 16.0785 38.5831 16.3702 38.292L30.4639 24.1983C30.8035 23.8581 31.0597 23.4439 31.2123 22.9881C31.2419 22.9002 31.2914 22.8203 31.357 22.7547C31.4226 22.6891 31.5025 22.6395 31.5905 22.61C32.0462 22.4575 32.4604 22.2016 32.8006 21.8623L38.2959 16.3662C38.5859 16.0747 38.7487 15.6801 38.7485 15.2688C38.7484 14.8576 38.5854 14.4631 38.2952 14.1717ZM20.4537 11.8553C20.3377 11.9714 20.1999 12.0635 20.0482 12.1263C19.8965 12.1892 19.7339 12.2215 19.5698 12.2215C19.4056 12.2215 19.243 12.1892 19.0913 12.1263C18.9397 12.0635 18.8019 11.9714 18.6858 11.8553L17.7866 10.9561C17.5578 10.7205 17.431 10.4044 17.4335 10.076C17.436 9.74766 17.5675 9.43347 17.7998 9.20134C18.032 8.96921 18.3463 8.83778 18.6746 8.83545C19.003 8.83312 19.319 8.96009 19.5545 9.18891L20.4537 10.0873C20.5699 10.2034 20.662 10.3412 20.7248 10.4929C20.7876 10.6446 20.82 10.8071 20.82 10.9713C20.82 11.1355 20.7876 11.2981 20.7248 11.4497C20.662 11.6014 20.5699 11.7392 20.4537 11.8553ZM23.8912 15.2928C23.6569 15.5271 23.339 15.6586 23.0077 15.6586C22.6763 15.6586 22.3585 15.5271 22.1241 15.2928L21.2647 14.4334C21.1486 14.3173 21.0565 14.1795 20.9937 14.0279C20.9309 13.8762 20.8985 13.7136 20.8985 13.5495C20.8985 13.3853 20.9309 13.2227 20.9937 13.071C21.0565 12.9194 21.1486 12.7816 21.2647 12.6655C21.4991 12.431 21.8171 12.2993 22.1487 12.2993C22.3128 12.2993 22.4754 12.3316 22.6271 12.3945C22.7788 12.4573 22.9166 12.5494 23.0327 12.6655L23.892 13.5248C24.0085 13.6409 24.101 13.7788 24.1641 13.9307C24.2272 14.0826 24.2597 14.2454 24.2598 14.4098C24.2599 14.5743 24.2275 14.7371 24.1645 14.8891C24.1016 15.041 24.0092 15.179 23.8928 15.2952L23.8912 15.2928ZM27.3287 18.7303C27.2127 18.8464 27.0749 18.9385 26.9232 19.0013C26.7715 19.0642 26.6089 19.0965 26.4448 19.0965C26.2806 19.0965 26.118 19.0642 25.9663 19.0013C25.8147 18.9385 25.6769 18.8464 25.5608 18.7303L24.7014 17.8709C24.4727 17.6353 24.3459 17.3192 24.3483 16.9909C24.3508 16.6625 24.4824 16.3483 24.7146 16.1162C24.9468 15.8841 25.2611 15.7526 25.5894 15.7503C25.9178 15.748 26.2339 15.8749 26.4694 16.1037L27.3287 16.9631C27.4456 17.079 27.5384 17.2168 27.6018 17.3686C27.6653 17.5205 27.6981 17.6833 27.6985 17.8479C27.6988 18.0124 27.6667 18.1754 27.6039 18.3275C27.5412 18.4796 27.449 18.6178 27.3327 18.7342L27.3287 18.7303ZM30.7998 22.21C30.6838 22.3261 30.546 22.4182 30.3943 22.481C30.2426 22.5439 30.08 22.5762 29.9159 22.5762C29.7517 22.5762 29.5891 22.5439 29.4374 22.481C29.2858 22.4182 29.1479 22.3261 29.0319 22.21L28.1381 21.3116C28.0196 21.1958 27.9252 21.0577 27.8606 20.9052C27.7959 20.7526 27.7622 20.5888 27.7614 20.4231C27.7606 20.2575 27.7927 20.0933 27.8559 19.9401C27.9192 19.787 28.0122 19.648 28.1296 19.5311C28.247 19.4143 28.3865 19.3219 28.54 19.2594C28.6934 19.197 28.8577 19.1656 29.0234 19.1672C29.1891 19.1688 29.3528 19.2033 29.505 19.2687C29.6572 19.3342 29.7948 19.4292 29.91 19.5483L30.8045 20.4459C30.9206 20.5621 31.0126 20.6999 31.0754 20.8516C31.1382 21.0033 31.1704 21.1659 31.1704 21.3301C31.1703 21.4943 31.1379 21.6568 31.075 21.8085C31.0121 21.9601 30.9199 22.0979 30.8037 22.2139L30.7998 22.21Z" stroke="#FFE047" stroke-width="5" mask="url(#path-1-inside-1_85_17479)"/>
</svg>
